<?xml version="1.0" standalone="no"?><!DOCTYPE svg PUBLIC "-//W3C//DTD SVG 1.1//EN" "http://www.w3.org/Graphics/SVG/1.1/DTD/svg11.dtd"><svg t="1727850663000" class="icon" viewBox="0 0 1024 1024" version="1.1" xmlns="http://www.w3.org/2000/svg" p-id="16382" xmlns:xlink="http://www.w3.org/1999/xlink" width="200" height="200"><path d="M510.464 950.784c-14.336 0-40.96-6.656-55.808-50.688l-69.12-200.192c-8.704-25.088-39.424-55.808-64.512-64.512l-197.12-68.608c-44.032-15.36-50.688-41.984-50.688-56.32 0-14.336 6.656-40.96 50.688-55.808L322.56 387.072c25.6-8.704 55.808-38.912 64.512-64l67.584-200.192c14.848-44.032 41.472-50.688 55.808-50.688 14.336 0 40.96 6.656 55.808 50.688l69.632 201.728c8.704 25.088 39.424 55.296 64 64l198.656 67.072c44.032 14.848 50.688 41.472 51.2 55.808 0 14.336-6.656 40.96-50.688 55.808l-201.728 69.12c-25.088 8.704-55.296 38.912-64 64l-67.072 199.168c-14.848 44.544-41.472 51.2-55.808 51.2zM181.76 510.976l163.328 56.832c46.08 15.872 92.672 62.976 108.544 109.056l56.832 164.864 55.296-164.352c15.36-46.08 62.464-93.184 108.544-109.056l166.4-56.832-163.328-55.296c-46.08-15.872-93.184-62.464-109.056-108.544l-57.344-166.912-56.32 165.376c-15.872 46.08-62.464 93.184-108.544 108.544l-164.352 56.32z" fill="#000000" p-id="16383"></path></svg>