<?xml version="1.0" standalone="no"?><!DOCTYPE svg PUBLIC "-//W3C//DTD SVG 1.1//EN" "http://www.w3.org/Graphics/SVG/1.1/DTD/svg11.dtd"><svg t="1727875600545" class="icon" viewBox="0 0 1024 1024" version="1.1" xmlns="http://www.w3.org/2000/svg" p-id="21795" xmlns:xlink="http://www.w3.org/1999/xlink" width="200" height="200"><path d="M516.589949 807.876718a126.852497 126.852497 0 0 0 120.822737-88.512326 7.243297 7.243297 0 0 0-13.121364-5.91599c0 0.303384-19.606201 31.855336-95.186776 42.132473a246.158313 246.158313 0 0 1-32.765488 2.313304 122.567196 122.567196 0 0 1-76.680344-20.402584 7.243297 7.243297 0 0 0-9.480754 0 7.357066 7.357066 0 0 0-1.516921 9.442832 127.800572 127.800572 0 0 0 107.92891 60.942291zM923.086785 336.683213h-1.896151a426.216805 426.216805 0 0 0-836.505942 15.927668A80.586414 80.586414 0 0 0 18.964101 432.249219v159.655908a80.358876 80.358876 0 0 0 79.638339 81.041491 78.65234 78.65234 0 0 0 61.359444-29.921262 371.645581 371.645581 0 0 0 197.844387 209.259216 42.815088 42.815088 0 0 1 4.01984-6.522759c1.441075-1.858228 3.033841-3.375149 4.39907-3.375149a6.636528 6.636528 0 0 1 3.792302 1.327306 361.33052 361.33052 0 0 1-113.389825-209.5626 97.538004 97.538004 0 0 1 72.888041-106.563682c69.209509-12.969672 138.039787-27.721727 207.249296-40.425938a119.571277 119.571277 0 0 0 92.456319-72.736349 188.591171 188.591171 0 0 0 13.386826-56.088145 8.570602 8.570602 0 0 1 8.380987-7.243296 8.684371 8.684371 0 0 1 6.901989 3.564764l1.896151-1.175614a497.057003 497.057003 0 0 1 89.119094 220.977429c8.911909 106.184452 3.792302 179.110416-76.983728 253.591224l-0.341307 0.303385a6.712374 6.712374 0 0 0-1.782382 4.550762 6.560682 6.560682 0 0 0 2.957996 5.422991l2.00992 0.910153a7.584604 7.584604 0 0 0 1.592766 0.303384 6.02976 6.02976 0 0 0 1.516921-0.303384c1.137691-0.606768 2.237458-1.327306 3.375149-1.934074a371.645581 371.645581 0 0 0 173.611578-212.103442 81.837874 81.837874 0 0 0 51.49946 34.585792c-34.130717 156.659989-173.194425 254.728915-345.327007 269.594739a69.47497 69.47497 0 1 0 1.289383 46.304005c199.247539-16.306898 358.979293-135.385176 392.351549-320.487429a81.762028 81.762028 0 0 0 50.134231-75.390961v-161.552058a81.837874 81.837874 0 0 0-81.724105-81.53449z m-73.49481 46.379851a366.639743 366.639743 0 0 0-689.478399-1.782381 86.995404 86.995404 0 0 0-8.684372-8.722295 357.68991 357.68991 0 0 1 706.202451-2.464996 80.396799 80.396799 0 0 0-8.03968 13.007595zM357.92004 852.398341s-0.037923 0.075846 0 0z" p-id="21796"></path></svg>