<?xml version="1.0" standalone="no"?><!DOCTYPE svg PUBLIC "-//W3C//DTD SVG 1.1//EN" "http://www.w3.org/Graphics/SVG/1.1/DTD/svg11.dtd"><svg t="1728124469295" class="icon" viewBox="0 0 1024 1024" version="1.1" xmlns="http://www.w3.org/2000/svg" p-id="9498" xmlns:xlink="http://www.w3.org/1999/xlink" width="200" height="200"><path d="M508.5 863.9c-59.3 0-113.1-35.2-137-89.7l-1.7-3.8H228c-8.8 0-17-4.7-21.4-12.3-4.4-7.6-4.5-17.1-0.1-24.7l59.2-104.2-0.2-164.1c0-49.5 14.9-97.2 43.1-137.9 27.5-39.8 65.7-70.2 110.4-87.9l4.9-1.9-1-5.2c-1-5.4-1.5-10.9-1.5-16.4 0-48 39-87.1 87-87.1s87 39.1 87 87.1c0 5.5-0.5 11-1.5 16.4l-1 5.2 4.9 1.9c44.7 17.8 82.9 48.2 110.4 87.9 28.2 40.7 43.1 88.4 43.1 137.9v164.3l59.1 104c4.3 7.6 4.3 17.1-0.1 24.7-4.4 7.6-12.6 12.3-21.4 12.3H647l-1.7 3.8c-23.7 54.6-77.5 89.7-136.8 89.7z m-74.4-82.8c18.9 21.2 46.1 33.3 74.4 33.3 28.3 0 55.4-12.1 74.4-33.3l9.5-10.7H424.6l9.5 10.7zM315.2 634.8c0.2 4.6-0.9 9.2-3.2 13.3l-41.4 72.8h475.8L705 648.1c-2.5-4.3-3.6-9.2-3.2-14.1V465.2c0-106.6-86.8-193.4-193.4-193.4-106.6 0-193.4 86.8-193.4 193.4v168.4l0.2 1.2z m193.3-412.6c10.1 0 20.3 0.6 30.2 1.9l6.7 0.8 0.5-6.7c0.1-0.8 0.1-1.6 0.1-2.4 0-20.7-16.8-37.5-37.5-37.5S471 195.1 471 215.8c0 0.9 0 1.7 0.1 2.4l0.5 6.7 6.7-0.8c9.9-1.2 20.1-1.9 30.2-1.9z" fill="#242424" p-id="9499"></path></svg>