<?xml version="1.0" standalone="no"?><!DOCTYPE svg PUBLIC "-//W3C//DTD SVG 1.1//EN" "http://www.w3.org/Graphics/SVG/1.1/DTD/svg11.dtd"><svg t="1728033648547" class="icon" viewBox="0 0 1024 1024" version="1.1" xmlns="http://www.w3.org/2000/svg" p-id="7524" xmlns:xlink="http://www.w3.org/1999/xlink" width="200" height="200"><path d="M743.01 557.6c-14.98 0-29.48 2.32-43.15 6.6L552.58 416.92l236.87-236.88-37.17-37.17-236.87 236.88-238.38-238.38-37.17 37.17 238.38 238.39-147.99 147.99c-14.29-4.73-29.52-7.32-45.28-7.32-78.84 0-144.54 63.83-144.54 144.54 0 80.72 63.82 144.54 144.54 144.54 78.84 0 144.54-63.83 144.54-144.54 0-44.71-20.18-84.21-51.56-110.58L515.41 454.1l136.15 136.15c-32.27 26.36-53.1 66.45-53.1 111.89 0 80.72 63.83 144.54 144.55 144.54 78.84 0 144.54-63.83 144.54-144.54 0-80.72-65.7-144.54-144.54-144.54zM284.97 790.37c-48.81 0-88.23-39.42-88.23-88.23s39.42-88.23 88.23-88.23 88.23 39.42 88.23 88.23-39.42 88.23-88.23 88.23z m458.04 0c-48.81 0-88.23-39.42-88.23-88.23s39.42-88.23 88.23-88.23 88.23 39.42 88.23 88.23c-0.01 48.81-39.43 88.23-88.23 88.23zM284.97 557.6z" fill="#000000" p-id="7525"></path></svg>