<?xml version="1.0" standalone="no"?><!DOCTYPE svg PUBLIC "-//W3C//DTD SVG 1.1//EN" "http://www.w3.org/Graphics/SVG/1.1/DTD/svg11.dtd"><svg t="1728039023223" class="icon" viewBox="0 0 1024 1024" version="1.1" xmlns="http://www.w3.org/2000/svg" p-id="16980" id="mx_n_1728039023224" xmlns:xlink="http://www.w3.org/1999/xlink" width="200" height="200"><path d="M504.012722 835.192538l332.678368-335.525614a73.179251 73.179251 0 0 1 30.330676-18.232373V142.552181a71.201163 71.201163 0 0 0-71.13123-71.12124H155.739432a71.201163 71.201163 0 0 0-71.131231 71.12124V889.440092a71.201163 71.201163 0 0 0 71.131231 71.131231H458.356862zM262.436277 213.683412h426.787384a35.575606 35.575606 0 0 1 0 71.14122h-426.787384a35.575606 35.575606 0 0 1 0-71.14122z m0 213.403682h313.766652a35.565615 35.565615 0 1 1 0 71.12124H262.436277a35.565615 35.565615 0 1 1 0-71.12124z m-35.565615 248.949316a35.515664 35.515664 0 0 1 35.565615-35.555625h202.624104a35.565615 35.565615 0 1 1 0 71.131231H262.436277a35.535644 35.535644 0 0 1-35.565615-35.575606zM901.838106 630.39054l-65.596582-65.596581 32.818272-32.7883a27.823101 27.823101 0 0 1 39.341964 0l26.234636 26.224646a27.843081 27.843081 0 0 1 0 39.371935L901.838106 630.39054z" p-id="16981" fill="#000000"></path><path d="M625.485283 906.773334L559.888701 841.186743 824.003356 578.460746l65.596582 65.596581-264.114655 262.716007zM507.189651 960.571323l39.911413-106.606933 65.047113 65.057103-104.958526 41.54983z" p-id="16982" fill="#000000"></path></svg>