<?xml version="1.0" standalone="no"?><!DOCTYPE svg PUBLIC "-//W3C//DTD SVG 1.1//EN" "http://www.w3.org/Graphics/SVG/1.1/DTD/svg11.dtd"><svg t="1728137165530" class="icon" viewBox="0 0 1024 1024" version="1.1" xmlns="http://www.w3.org/2000/svg" p-id="7442" xmlns:xlink="http://www.w3.org/1999/xlink" width="200" height="200"><path d="M453.78 586.72c-62.1-21.87-113.61-38.1-159.48-57.16V725s78.33 84 223.7 84c134.79 0 211.71-84 211.71-84V514.74c-59.28 26.11-113.62 54.34-153.84 71.26-35.29 19.05-84 14.82-122.09 0.7z m0 0" fill="#303031" p-id="7443"></path><path d="M897 543.68l-28.23-28.23V403.24c19.06-12 65.63-22.58-3.53-52.93-78.33-33.87-237.11-94.56-306.27-124.2-38.81-19.75-61.39-10.58-103.74 7.06-71.27 27.52-206.76 79-287.92 110.8-62.81 24-58.57 42.34-0.71 70.57 86.81 42.34 261.11 108 297.81 122.08s63.51 14.11 100.21-2.82 90.29-38.8 257.54-109.38v93.85l-25.41 25.41a17 17 0 0 0 0 24.69l38.11 38.11a17.05 17.05 0 0 0 24.7 0l38.11-38.11a17.68 17.68 0 0 0-0.71-24.69z m0 0" fill="#303031" p-id="7444"></path></svg>